# Blender 4.3.2
# www.blender.org
mtllib space_helmit.mtl
o Sphere
v 0.000000 0.500000 -0.866025
v 0.000000 0.173648 -0.984808
v 0.000000 -0.173648 -0.984808
v -0.376869 -0.506319 -0.909844
v 0.130885 0.939693 -0.315985
v 0.245984 0.766044 -0.593858
v 0.331414 0.500000 -0.800103
v 0.376870 0.173648 -0.909844
v 0.376870 -0.173648 -0.909844
v -0.696364 -0.506319 -0.696364
v 0.241845 0.939693 -0.241845
v 0.454520 0.766044 -0.454519
v 0.612372 0.500000 -0.612372
v 0.696364 0.173648 -0.696364
v 0.696364 -0.173648 -0.696364
v 0.909844 -0.506319 -0.376869
v 0.315985 0.939693 -0.130885
v 0.593858 0.766044 -0.245984
v 0.800103 0.500000 -0.331413
v 0.909844 0.173648 -0.376869
v 0.909844 -0.173648 -0.376869
v 0.696364 -0.506319 -0.696364
v 0.342020 0.939693 0.000000
v 0.642788 0.766044 0.000000
v 0.866025 0.500000 0.000000
v 0.984808 0.173648 0.000000
v 0.984808 -0.173648 0.000000
v 0.866025 -0.500000 -0.036073
v 0.315985 0.939693 0.130885
v 0.593858 0.766044 0.245984
v 0.800103 0.500000 0.331414
v 0.909844 0.173648 0.376870
v 0.909844 -0.173648 0.376870
v 0.800103 -0.500000 0.331414
v 0.241845 0.939693 0.241845
v 0.454519 0.766044 0.454520
v 0.612372 0.500000 0.612373
v 0.696364 0.173648 0.696364
v 0.696364 -0.173648 0.696364
v 0.612372 -0.500000 0.612373
v 0.130885 0.939693 0.315985
v 0.245984 0.766044 0.593858
v 0.376869 -0.173648 0.909844
v 0.331413 -0.500000 0.800103
v -0.000000 0.939693 0.342020
v -0.000000 0.766044 0.642788
v -0.000000 -0.173648 0.984808
v -0.000000 -0.500000 0.866025
v 0.000000 1.000000 0.000000
v -0.130885 0.939693 0.315985
v -0.245984 0.766044 0.593858
v -0.376870 -0.173648 0.909843
v -0.331414 -0.500000 0.800103
v -0.241845 0.939693 0.241845
v -0.454520 0.766044 0.454519
v -0.612373 0.500000 0.612372
v -0.696364 0.173648 0.696364
v -0.696364 -0.173648 0.696364
v -0.612373 -0.500000 0.612372
v -0.315985 0.939693 0.130885
v -0.593858 0.766044 0.245984
v -0.800103 0.500000 0.331413
v -0.909844 0.173648 0.376869
v -0.909844 -0.173648 0.376869
v -0.800103 -0.500000 0.331413
v -0.342020 0.939693 -0.000000
v -0.642788 0.766044 -0.000000
v -0.866025 0.500000 -0.000000
v -0.984807 0.173648 -0.000000
v -0.984807 -0.173648 -0.000000
v -0.866025 -0.500000 -0.000000
v -0.315985 0.939693 -0.130886
v -0.593858 0.766044 -0.245984
v -0.800103 0.500000 -0.331414
v -0.909843 0.173648 -0.376870
v -0.909843 -0.173648 -0.376870
v -0.800103 -0.500000 -0.367487
v -0.241845 0.939693 -0.241845
v -0.454519 0.766044 -0.454520
v -0.612372 0.500000 -0.612373
v -0.696364 0.173648 -0.696364
v -0.696364 -0.173648 -0.696364
v 0.376870 -0.506319 -0.909844
v -0.130885 0.939693 -0.315985
v -0.245984 0.766044 -0.593858
v -0.331413 0.500000 -0.800103
v -0.376869 0.173648 -0.909844
v -0.376869 -0.173648 -0.909844
v 0.000000 -0.506319 -0.984808
v 0.000000 0.939693 -0.342020
v 0.000000 0.766044 -0.642787
v 0.000000 0.455821 -0.787615
v 0.000000 0.158342 -0.896119
v 0.000000 -0.173648 -0.894808
v -0.342428 -0.506319 -0.826694
v 0.118456 0.855758 -0.285978
v 0.223420 0.698049 -0.539383
v 0.301407 0.455821 -0.727661
v 0.342930 0.158342 -0.827906
v 0.342428 -0.173648 -0.826695
v -0.628969 -0.499160 -0.637147
v 0.218878 0.855758 -0.218878
v 0.412826 0.698049 -0.412826
v 0.556928 0.455821 -0.556928
v 0.633652 0.158342 -0.633652
v 0.632725 -0.173648 -0.632725
v 0.824744 -0.498157 -0.348738
v 0.285978 0.855758 -0.118456
v 0.539383 0.698049 -0.223420
v 0.727661 0.455821 -0.301407
v 0.827906 0.158342 -0.342930
v 0.825562 -0.169581 -0.345564
v 0.632725 -0.506319 -0.632725
v 0.309540 0.855758 0.000000
v 0.583824 0.698049 0.000000
v 0.787615 0.455821 0.000000
v 0.896119 0.158342 0.000000
v 0.895672 -0.161662 -0.003339
v 0.779291 -0.476662 -0.041773
v 0.285978 0.855758 0.118456
v 0.539383 0.698049 0.223420
v 0.727661 0.455821 0.301407
v 0.827906 0.158342 0.342930
v 0.827870 -0.158135 0.343111
v 0.721958 -0.468803 0.299475
v 0.218878 0.855758 0.218878
v 0.412166 0.694751 0.419543
v 0.546875 0.456470 0.568609
v 0.622581 0.158628 0.647064
v 0.630162 -0.153179 0.638934
v 0.552571 -0.469218 0.552571
v 0.118456 0.855758 0.285978
v 0.228763 0.688102 0.552284
v 0.344505 -0.142866 0.831709
v 0.299049 -0.469218 0.721968
v -0.000000 0.855758 0.309540
v -0.000000 0.688102 0.597788
v -0.000000 -0.142866 0.900235
v -0.000000 -0.469218 0.781453
v -0.000000 0.910000 0.000000
v -0.118456 0.855758 0.285978
v -0.228763 0.688102 0.552284
v -0.344505 -0.142866 0.831709
v -0.299049 -0.469218 0.721968
v -0.218878 0.855758 0.218878
v -0.412166 0.694751 0.419542
v -0.546875 0.456470 0.568608
v -0.622582 0.158628 0.647064
v -0.630162 -0.153179 0.638933
v -0.552571 -0.469218 0.552571
v -0.285978 0.855758 0.118456
v -0.539383 0.698049 0.223420
v -0.727661 0.455821 0.301407
v -0.827906 0.158342 0.342930
v -0.827906 -0.158342 0.342930
v -0.721968 -0.469218 0.299049
v -0.309540 0.855758 -0.000000
v -0.583824 0.698049 -0.000000
v -0.787614 0.455821 -0.000000
v -0.896119 0.158342 -0.000000
v -0.896083 -0.158550 -0.000183
v -0.781303 -0.469636 -0.000399
v -0.285978 0.855758 -0.118456
v -0.539383 0.698049 -0.223420
v -0.727661 0.455821 -0.301407
v -0.827906 0.158342 -0.342930
v -0.826105 -0.162510 -0.345824
v -0.717410 -0.478346 -0.339325
v -0.218878 0.855758 -0.218878
v -0.412826 0.698049 -0.412826
v -0.556927 0.455821 -0.556928
v -0.633651 0.158342 -0.633652
v -0.630731 -0.170076 -0.634886
v 0.342428 -0.506319 -0.826695
v -0.118456 0.855758 -0.285978
v -0.223420 0.698049 -0.539383
v -0.301407 0.455821 -0.727661
v -0.342929 0.158342 -0.827906
v -0.342428 -0.173648 -0.826694
v 0.000000 -0.506319 -0.894808
v 0.000000 0.855758 -0.309540
v 0.000000 0.698049 -0.583824
vn 0.1951 -0.0000 -0.9808
vn 0.0990 0.8618 -0.4975
vn 0.1506 0.6355 -0.7573
vn 0.1837 0.3362 -0.9237
vn 0.0345 0.9842 -0.1735
vn 0.5556 -0.0000 -0.8315
vn 0.4290 0.6355 -0.6420
vn 0.5232 0.3362 -0.7831
vn 0.0983 0.9842 -0.1471
vn 0.2818 0.8618 -0.4218
vn 0.7831 0.3362 -0.5232
vn 0.1471 0.9842 -0.0983
vn 0.8315 -0.0000 -0.5556
vn 0.4218 0.8618 -0.2818
vn -0.1951 -0.0000 -0.9808
vn 0.6420 0.6355 -0.4290
vn 0.4975 0.8618 -0.0990
vn -0.5556 -0.0000 -0.8315
vn 0.7573 0.6355 -0.1506
vn 0.9237 0.3362 -0.1837
vn 0.1735 0.9842 -0.0345
vn 0.9808 -0.0000 -0.1951
vn 0.9237 0.3362 0.1837
vn 0.1735 0.9842 0.0345
vn 0.9808 -0.0000 0.1951
vn 0.4975 0.8618 0.0990
vn 0.9223 -0.3447 0.1746
vn 0.7573 0.6355 0.1506
vn 0.8315 -0.0000 0.5556
vn 0.4218 0.8618 0.2818
vn 0.7831 -0.3362 0.5232
vn 0.6420 0.6355 0.4290
vn 0.7831 0.3362 0.5232
vn 0.1471 0.9842 0.0983
vn 0.5232 -0.3362 0.7831
vn 0.0983 0.9842 0.1471
vn 0.2818 0.8618 0.4218
vn 0.0345 0.9842 0.1735
vn 0.0990 0.8618 0.4975
vn 0.1837 -0.3362 0.9237
vn -0.0990 0.8618 0.4975
vn -0.1837 -0.3362 0.9237
vn -0.0345 0.9842 0.1735
vn -0.0983 0.9842 0.1471
vn -0.2818 0.8618 0.4218
vn -0.5232 -0.3362 0.7831
vn -0.8315 -0.0000 0.5556
vn -0.4218 0.8618 0.2818
vn -0.7831 -0.3362 0.5232
vn -0.6420 0.6355 0.4290
vn -0.7831 0.3362 0.5232
vn -0.1471 0.9842 0.0983
vn -0.7573 0.6355 0.1506
vn -0.9237 0.3362 0.1837
vn -0.1735 0.9842 0.0345
vn -0.9808 -0.0000 0.1951
vn -0.4975 0.8618 0.0990
vn -0.9237 -0.3362 0.1837
vn -0.1735 0.9842 -0.0345
vn -0.9808 -0.0000 -0.1951
vn -0.4975 0.8618 -0.0990
vn -0.9283 -0.3276 -0.1757
vn -0.7573 0.6355 -0.1506
vn -0.9237 0.3362 -0.1837
vn -0.6420 0.6355 -0.4290
vn -0.7831 0.3362 -0.5232
vn -0.1471 0.9842 -0.0983
vn -0.8315 -0.0000 -0.5556
vn -0.4218 0.8618 -0.2818
vn -0.5232 0.3362 -0.7831
vn -0.0983 0.9842 -0.1471
vn -0.2818 0.8618 -0.4218
vn -0.4290 0.6355 -0.6420
vn -0.0990 0.8618 -0.4975
vn -0.1506 0.6355 -0.7573
vn -0.1837 0.3362 -0.9237
vn -0.0345 0.9842 -0.1735
vn 0.9837 -0.1750 -0.0411
vn -0.8881 -0.1541 -0.4330
vn -0.1951 0.0039 0.9808
vn -0.0987 -0.8627 0.4960
vn -0.1505 -0.6365 0.7565
vn -0.1837 -0.3368 0.9235
vn -0.0343 -0.9844 0.1725
vn -0.5556 -0.0000 0.8315
vn -0.4285 -0.6365 0.6413
vn -0.5231 -0.3368 0.7829
vn -0.0977 -0.9844 0.1462
vn -0.5556 0.0039 0.8315
vn -0.2810 -0.8627 0.4205
vn -0.7829 -0.3368 0.5231
vn -0.1462 -0.9844 0.0977
vn -0.8308 0.0027 0.5565
vn -0.4205 -0.8627 0.2810
vn 0.1951 -0.0000 0.9808
vn -0.6413 -0.6365 0.4285
vn -0.4960 -0.8627 0.0987
vn 0.5528 -0.0014 0.8333
vn -0.7565 -0.6365 0.1505
vn -0.9235 -0.3368 0.1837
vn -0.1725 -0.9844 0.0343
vn -0.9802 0.0024 0.1979
vn -0.9235 -0.3368 -0.1837
vn -0.1725 -0.9844 -0.0343
vn -0.9811 0.0017 -0.1936
vn -0.4960 -0.8627 -0.0987
vn -0.9206 0.3498 -0.1733
vn -0.7565 -0.6365 -0.1505
vn -0.8301 -0.0029 -0.5576
vn -0.4200 -0.8617 -0.2848
vn -0.7811 0.3377 -0.5252
vn -0.6418 -0.6347 -0.4303
vn -0.7804 -0.3368 -0.5268
vn -0.1462 -0.9844 -0.0977
vn -0.5201 0.3389 -0.7840
vn -0.0977 -0.9844 -0.1462
vn -0.2789 -0.8612 -0.4248
vn -0.0343 -0.9844 -0.1725
vn -0.0995 -0.8601 -0.5003
vn 0.0995 -0.8601 -0.5003
vn 0.0343 -0.9844 -0.1725
vn 0.0977 -0.9844 -0.1462
vn 0.2789 -0.8612 -0.4248
vn 0.5201 0.3389 -0.7840
vn 0.8302 -0.0028 -0.5575
vn 0.4200 -0.8617 -0.2848
vn 0.7812 0.3378 -0.5251
vn 0.6418 -0.6347 -0.4303
vn 0.7804 -0.3368 -0.5268
vn 0.1462 -0.9844 -0.0977
vn 0.7565 -0.6365 -0.1505
vn 0.9235 -0.3368 -0.1837
vn 0.1725 -0.9844 -0.0343
vn 0.9808 0.0001 -0.1950
vn 0.4960 -0.8627 -0.0987
vn 0.9223 0.3403 -0.1834
vn 0.1725 -0.9844 0.0343
vn 0.9805 0.0019 0.1968
vn 0.4960 -0.8627 0.0987
vn 0.9268 0.3321 0.1751
vn 0.7565 -0.6365 0.1505
vn 0.9235 -0.3368 0.1837
vn -0.1951 -0.0000 0.9808
vn 0.6413 -0.6365 0.4285
vn 0.7829 -0.3368 0.5231
vn 0.1462 -0.9844 0.0977
vn 0.8300 0.0025 0.5578
vn 0.4205 -0.8627 0.2810
vn 0.5231 -0.3368 0.7829
vn 0.0977 -0.9844 0.1462
vn 0.5548 0.0028 0.8320
vn 0.2810 -0.8627 0.4205
vn -0.8293 -0.0017 0.5588
vn 0.4285 -0.6365 0.6413
vn 0.1951 0.0039 0.9808
vn 0.0987 -0.8627 0.4960
vn 0.1505 -0.6365 0.7565
vn 0.1837 -0.3368 0.9235
vn 0.0343 -0.9844 0.1725
vn -0.9837 0.1772 0.0293
vn 0.8922 0.1556 0.4240
vn -0.0000 -1.0000 -0.0000
vn -0.3050 -0.9514 -0.0425
vn -0.6460 0.0868 0.7584
vn -0.5734 0.0658 0.8167
vn -0.6066 -0.0168 0.7948
vn -0.2909 -0.9366 -0.1953
vn -0.1933 -0.9375 -0.2893
vn 0.1740 0.9563 0.2350
vn 0.4845 -0.5446 0.6846
vn 0.0679 0.9375 0.3412
vn 0.1698 -0.4927 0.8535
vn -0.0679 -0.9375 -0.3412
vn -0.1698 -0.4927 0.8535
vn 0.0679 -0.9375 -0.3412
vn -0.0679 0.9375 0.3412
vn 0.6460 0.0868 0.7584
vn 0.5734 0.0658 0.8167
vn 0.6066 -0.0168 0.7948
vn 0.1933 -0.9375 -0.2893
vn -0.1740 0.9563 0.2350
vn -0.4845 -0.5446 0.6846
vn 0.2893 -0.9375 -0.1933
vn 0.3389 -0.9384 -0.0667
vn 0.2864 -0.9560 0.0644
vn 0.0146 -0.9991 0.0398
vn -0.0329 -0.9988 0.0356
vn -0.1781 -0.9839 0.0177
vn 0.1396 -0.9865 0.0855
vt 0.750000 0.444444
vt 0.750000 0.555556
vt 0.687500 0.555556
vt 0.687500 0.444444
vt 0.750000 0.777778
vt 0.750000 0.888889
vt 0.687500 0.888889
vt 0.687500 0.777778
vt 0.750000 0.666667
vt 0.687500 0.666667
vt 0.718750 1.000000
vt 0.625000 0.444444
vt 0.625000 0.777778
vt 0.625000 0.666667
vt 0.625000 0.555556
vt 0.656250 1.000000
vt 0.625000 0.888889
vt 0.562500 0.666667
vt 0.562500 0.555556
vt 0.593750 1.000000
vt 0.562500 0.888889
vt 0.562500 0.444444
vt 0.562500 0.777778
vt 0.812500 0.444444
vt 0.500000 0.888889
vt 0.500000 0.777778
vt 0.875000 0.444444
vt 0.500000 0.666667
vt 0.500000 0.555556
vt 0.531250 1.000000
vt 0.500000 0.444444
vt 0.437500 0.666667
vt 0.437500 0.555556
vt 0.468750 1.000000
vt 0.437500 0.888889
vt 0.437500 0.444444
vt 0.437500 0.777778
vt 0.500000 0.333333
vt 0.437500 0.333333
vt 0.375000 0.555556
vt 0.375000 0.444444
vt 0.375000 0.888889
vt 0.375000 0.777778
vt 0.375000 0.333333
vt 0.375000 0.666667
vt 0.406250 1.000000
vt 0.312500 0.444444
vt 0.312500 0.333333
vt 0.343750 1.000000
vt 0.312500 0.888889
vt 0.312500 0.777778
vt 0.281250 1.000000
vt 0.250000 0.888889
vt 0.250000 0.777778
vt 0.250000 0.444444
vt 0.250000 0.333333
vt 0.187500 0.888889
vt 0.187500 0.777778
vt 0.187500 0.444444
vt 0.187500 0.333333
vt 0.218750 1.000000
vt 0.156250 1.000000
vt 0.125000 0.888889
vt 0.125000 0.777778
vt 0.125000 0.444444
vt 0.125000 0.333333
vt 0.125000 0.555556
vt 0.062500 0.555556
vt 0.062500 0.444444
vt 0.062500 0.888889
vt 0.062500 0.777778
vt 0.062500 0.333333
vt 0.125000 0.666667
vt 0.062500 0.666667
vt 0.093750 1.000000
vt 0.000000 0.777778
vt 0.000000 0.666667
vt 0.000000 0.555556
vt 0.031250 1.000000
vt 0.000000 0.888889
vt 0.000000 0.444444
vt 0.000000 0.333333
vt 1.000000 0.888889
vt 0.968750 1.000000
vt 0.937500 0.888889
vt 1.000000 0.444444
vt 1.000000 0.555556
vt 0.937500 0.555556
vt 0.937500 0.444444
vt 1.000000 0.777778
vt 0.937500 0.777778
vt 1.000000 0.333333
vt 0.937500 0.333333
vt 1.000000 0.666667
vt 0.937500 0.666667
vt 0.875000 0.777778
vt 0.875000 0.666667
vt 0.875000 0.555556
vt 0.906250 1.000000
vt 0.875000 0.888889
vt 0.812500 0.666667
vt 0.812500 0.555556
vt 0.843750 1.000000
vt 0.812500 0.888889
vt 0.812500 0.777778
vt 0.781250 1.000000
s 0
f 3/1/1 2/2/1 8/3/1 9/4/1
f 91/5/2 90/6/2 5/7/2 6/8/2
f 1/9/3 91/5/3 6/8/3 7/10/3
f 2/2/4 1/9/4 7/10/4 8/3/4
f 90/6/5 49/11/5 5/7/5
f 9/4/6 15/12/6 22/12/6 83/4/6
f 7/10/7 6/8/7 12/13/7 13/14/7
f 8/3/8 7/10/8 13/14/8 14/15/8
f 5/7/9 49/16/9 11/17/9
f 9/4/6 8/3/6 14/15/6 15/12/6
f 6/8/10 5/7/10 11/17/10 12/13/10
f 14/15/11 13/14/11 19/18/11 20/19/11
f 11/17/12 49/20/12 17/21/12
f 15/12/13 14/15/13 20/19/13 21/22/13
f 12/13/14 11/17/14 17/21/14 18/23/14
f 88/24/15 3/1/15 89/1/15 4/24/15
f 13/14/16 12/13/16 18/23/16 19/18/16
f 18/23/17 17/21/17 23/25/17 24/26/17
f 82/27/18 88/24/18 4/24/18 10/27/18
f 19/18/19 18/23/19 24/26/19 25/28/19
f 20/19/20 19/18/20 25/28/20 26/29/20
f 17/21/21 49/30/21 23/25/21
f 21/22/22 20/19/22 26/29/22 27/31/22
f 26/29/23 25/28/23 31/32/23 32/33/23
f 23/25/24 49/34/24 29/35/24
f 27/31/25 26/29/25 32/33/25 33/36/25
f 24/26/26 23/25/26 29/35/26 30/37/26
f 28/38/27 27/31/27 33/36/27 34/39/27
f 25/28/28 24/26/28 30/37/28 31/32/28
f 33/36/29 32/33/29 38/40/29 39/41/29
f 30/37/30 29/35/30 35/42/30 36/43/30
f 34/39/31 33/36/31 39/41/31 40/44/31
f 31/32/32 30/37/32 36/43/32 37/45/32
f 32/33/33 31/32/33 37/45/33 38/40/33
f 29/35/34 49/46/34 35/42/34
f 40/44/35 39/41/35 43/47/35 44/48/35
f 35/42/36 49/49/36 41/50/36
f 36/43/37 35/42/37 41/50/37 42/51/37
f 41/50/38 49/52/38 45/53/38
f 42/51/39 41/50/39 45/53/39 46/54/39
f 44/48/40 43/47/40 47/55/40 48/56/40
f 46/54/41 45/53/41 50/57/41 51/58/41
f 48/56/42 47/55/42 52/59/42 53/60/42
f 45/53/43 49/61/43 50/57/43
f 50/57/44 49/62/44 54/63/44
f 51/58/45 50/57/45 54/63/45 55/64/45
f 53/60/46 52/59/46 58/65/46 59/66/46
f 58/65/47 57/67/47 63/68/47 64/69/47
f 55/64/48 54/63/48 60/70/48 61/71/48
f 59/66/49 58/65/49 64/69/49 65/72/49
f 56/73/50 55/64/50 61/71/50 62/74/50
f 57/67/51 56/73/51 62/74/51 63/68/51
f 54/63/52 49/75/52 60/70/52
f 62/74/53 61/71/53 67/76/53 68/77/53
f 63/68/54 62/74/54 68/77/54 69/78/54
f 60/70/55 49/79/55 66/80/55
f 64/69/56 63/68/56 69/78/56 70/81/56
f 61/71/57 60/70/57 66/80/57 67/76/57
f 65/72/58 64/69/58 70/81/58 71/82/58
f 66/83/59 49/84/59 72/85/59
f 70/86/60 69/87/60 75/88/60 76/89/60
f 67/90/61 66/83/61 72/85/61 73/91/61
f 71/92/62 70/86/62 76/89/62 77/93/62
f 68/94/63 67/90/63 73/91/63 74/95/63
f 69/87/64 68/94/64 74/95/64 75/88/64
f 3/1/1 9/4/1 83/4/1 89/1/1
f 74/95/65 73/91/65 79/96/65 80/97/65
f 75/88/66 74/95/66 80/97/66 81/98/66
f 72/85/67 49/99/67 78/100/67
f 76/89/68 75/88/68 81/98/68 82/27/68
f 73/91/69 72/85/69 78/100/69 79/96/69
f 81/98/70 80/97/70 86/101/70 87/102/70
f 78/100/71 49/103/71 84/104/71
f 82/27/18 81/98/18 87/102/18 88/24/18
f 79/96/72 78/100/72 84/104/72 85/105/72
f 15/12/13 21/22/13 16/22/13 22/12/13
f 80/97/73 79/96/73 85/105/73 86/101/73
f 88/24/15 87/102/15 2/2/15 3/1/15
f 85/105/74 84/104/74 90/6/74 91/5/74
f 86/101/75 85/105/75 91/5/75 1/9/75
f 87/102/76 86/101/76 1/9/76 2/2/76
f 84/104/77 49/106/77 90/6/77
f 16/22/78 21/22/78 27/31/78 28/38/78
f 76/89/79 82/27/79 10/27/79 77/93/79
f 94/1/80 100/4/80 99/3/80 93/2/80
f 182/5/81 97/8/81 96/7/81 181/6/81
f 92/9/82 98/10/82 97/8/82 182/5/82
f 93/2/83 99/3/83 98/10/83 92/9/83
f 181/6/84 96/7/84 140/11/84
f 100/4/85 174/4/85 113/12/85 106/12/85
f 98/10/86 104/14/86 103/13/86 97/8/86
f 99/3/87 105/15/87 104/14/87 98/10/87
f 96/7/88 102/17/88 140/16/88
f 100/4/89 106/12/89 105/15/89 99/3/89
f 97/8/90 103/13/90 102/17/90 96/7/90
f 105/15/91 111/19/91 110/18/91 104/14/91
f 102/17/92 108/21/92 140/20/92
f 106/12/93 112/22/93 111/19/93 105/15/93
f 103/13/94 109/23/94 108/21/94 102/17/94
f 179/24/95 95/24/95 180/1/95 94/1/95
f 104/14/96 110/18/96 109/23/96 103/13/96
f 109/23/97 115/26/97 114/25/97 108/21/97
f 173/27/98 101/27/98 95/24/98 179/24/98
f 110/18/99 116/28/99 115/26/99 109/23/99
f 111/19/100 117/29/100 116/28/100 110/18/100
f 108/21/101 114/25/101 140/30/101
f 112/22/102 118/31/102 117/29/102 111/19/102
f 117/29/103 123/33/103 122/32/103 116/28/103
f 114/25/104 120/35/104 140/34/104
f 118/31/105 124/36/105 123/33/105 117/29/105
f 115/26/106 121/37/106 120/35/106 114/25/106
f 119/38/107 125/39/107 124/36/107 118/31/107
f 116/28/108 122/32/108 121/37/108 115/26/108
f 124/36/109 130/41/109 129/40/109 123/33/109
f 121/37/110 127/43/110 126/42/110 120/35/110
f 125/39/111 131/44/111 130/41/111 124/36/111
f 122/32/112 128/45/112 127/43/112 121/37/112
f 123/33/113 129/40/113 128/45/113 122/32/113
f 120/35/114 126/42/114 140/46/114
f 131/44/115 135/48/115 134/47/115 130/41/115
f 126/42/116 132/50/116 140/49/116
f 127/43/117 133/51/117 132/50/117 126/42/117
f 132/50/118 136/53/118 140/52/118
f 133/51/119 137/54/119 136/53/119 132/50/119
f 135/48/76 139/56/76 138/55/76 134/47/76
f 137/54/120 142/58/120 141/57/120 136/53/120
f 139/56/4 144/60/4 143/59/4 138/55/4
f 136/53/121 141/57/121 140/61/121
f 141/57/122 145/63/122 140/62/122
f 142/58/123 146/64/123 145/63/123 141/57/123
f 144/60/124 150/66/124 149/65/124 143/59/124
f 149/65/125 155/69/125 154/68/125 148/67/125
f 146/64/126 152/71/126 151/70/126 145/63/126
f 150/66/127 156/72/127 155/69/127 149/65/127
f 147/73/128 153/74/128 152/71/128 146/64/128
f 148/67/129 154/68/129 153/74/129 147/73/129
f 145/63/130 151/70/130 140/75/130
f 153/74/131 159/77/131 158/76/131 152/71/131
f 154/68/132 160/78/132 159/77/132 153/74/132
f 151/70/133 157/80/133 140/79/133
f 155/69/134 161/81/134 160/78/134 154/68/134
f 152/71/135 158/76/135 157/80/135 151/70/135
f 156/72/136 162/82/136 161/81/136 155/69/136
f 157/83/137 163/85/137 140/84/137
f 161/86/138 167/89/138 166/88/138 160/87/138
f 158/90/139 164/91/139 163/85/139 157/83/139
f 162/92/140 168/93/140 167/89/140 161/86/140
f 159/94/141 165/95/141 164/91/141 158/90/141
f 160/87/142 166/88/142 165/95/142 159/94/142
f 94/1/143 180/1/143 174/4/143 100/4/143
f 165/95/144 171/97/144 170/96/144 164/91/144
f 166/88/145 172/98/145 171/97/145 165/95/145
f 163/85/146 169/100/146 140/99/146
f 167/89/147 173/27/147 172/98/147 166/88/147
f 164/91/148 170/96/148 169/100/148 163/85/148
f 172/98/149 178/102/149 177/101/149 171/97/149
f 169/100/150 175/104/150 140/103/150
f 173/27/151 179/24/151 178/102/151 172/98/151
f 170/96/152 176/105/152 175/104/152 169/100/152
f 106/12/153 113/12/153 107/22/153 112/22/153
f 171/97/154 177/101/154 176/105/154 170/96/154
f 179/24/155 94/1/155 93/2/155 178/102/155
f 176/105/156 182/5/156 181/6/156 175/104/156
f 177/101/157 92/9/157 182/5/157 176/105/157
f 178/102/158 93/2/158 92/9/158 177/101/158
f 175/104/159 181/6/159 140/106/159
f 107/22/160 119/38/160 118/31/160 112/22/160
f 167/89/161 168/93/161 101/27/161 173/27/161
f 4/24/162 89/1/162 180/1/162 95/24/162
f 28/38/163 34/39/163 125/39/163 119/38/163
f 37/45/164 36/43/164 127/43/164 128/45/164
f 38/40/165 37/45/165 128/45/165 129/40/165
f 39/41/166 38/40/166 129/40/166 130/41/166
f 34/39/167 40/44/167 131/44/167 125/39/167
f 40/44/168 44/48/168 135/48/168 131/44/168
f 43/47/169 39/41/169 130/41/169 134/47/169
f 36/43/170 42/51/170 133/51/170 127/43/170
f 47/55/171 43/47/171 134/47/171 138/55/171
f 42/51/172 46/54/172 137/54/172 133/51/172
f 44/48/173 48/56/173 139/56/173 135/48/173
f 46/54/174 51/58/174 142/58/174 137/54/174
f 48/56/175 53/60/175 144/60/175 139/56/175
f 52/59/176 47/55/176 138/55/176 143/59/176
f 55/64/177 56/73/177 147/73/177 146/64/177
f 56/73/178 57/67/178 148/67/178 147/73/178
f 57/67/179 58/65/179 149/65/179 148/67/179
f 53/60/180 59/66/180 150/66/180 144/60/180
f 58/65/181 52/59/181 143/59/181 149/65/181
f 51/58/182 55/64/182 146/64/182 142/58/182
f 59/66/183 65/72/183 156/72/183 150/66/183
f 65/72/184 71/82/184 162/82/184 156/72/184
f 71/92/185 77/93/185 168/93/185 162/92/185
f 10/27/186 4/24/186 95/24/186 101/27/186
f 22/12/187 16/22/187 107/22/187 113/12/187
f 89/1/162 83/4/162 174/4/162 180/1/162
f 83/4/162 22/12/162 113/12/162 174/4/162
f 16/22/188 28/38/188 119/38/188 107/22/188
f 77/93/189 10/27/189 101/27/189 168/93/189
o Mask
v 0.467389 0.785108 0.382337
v 0.626960 0.514510 0.542763
v 0.712797 0.178655 0.629516
v 0.713031 -0.173648 0.629866
v 0.254779 0.785328 0.523648
v 0.341415 0.514726 0.732808
v 0.388183 0.178750 0.845714
v 0.388350 -0.173648 0.846118
v -0.000000 0.785328 0.574327
v -0.000000 0.514726 0.800720
v -0.000000 0.178750 0.922928
v -0.000000 -0.173648 0.923365
v -0.254779 0.785328 0.523648
v -0.341416 0.514726 0.732808
v -0.388183 0.178750 0.845714
v -0.388350 -0.173648 0.846117
v -0.467389 0.785108 0.382337
v -0.626960 0.514510 0.542762
v -0.712798 0.178655 0.629516
v -0.713031 -0.173648 0.629866
v 0.454519 0.766044 0.363077
v 0.612372 0.500000 0.520930
v 0.696364 0.173648 0.604922
v 0.696364 -0.173648 0.604922
v 0.245984 0.766044 0.502416
v 0.331413 0.500000 0.708661
v 0.376869 0.173648 0.818401
v 0.376869 -0.173648 0.818401
v -0.000000 0.766044 0.551345
v -0.000000 0.500000 0.774583
v -0.000000 0.173648 0.893365
v -0.000000 -0.173648 0.893365
v -0.245984 0.766044 0.502416
v -0.331414 0.500000 0.708660
v -0.376870 0.173648 0.818401
v -0.376870 -0.173648 0.818401
v -0.454520 0.766044 0.363077
v -0.612373 0.500000 0.520930
v -0.696364 0.173648 0.604921
v -0.696364 -0.173648 0.604921
vn 0.4285 0.6343 0.6434
vn 0.5221 0.3360 0.7839
vn 0.5543 0.0012 0.8323
vn 0.1837 0.3360 0.9238
vn 0.1951 0.0012 0.9808
vn 0.1508 0.6343 0.7582
vn -0.1508 0.6343 0.7582
vn -0.1837 0.3360 0.9238
vn -0.1951 0.0012 0.9808
vn -0.5221 0.3360 0.7839
vn -0.5543 0.0012 0.8323
vn -0.4285 0.6343 0.6434
vn -0.4290 -0.6355 -0.6420
vn -0.5232 -0.3362 -0.7831
vn -0.5556 -0.0000 -0.8315
vn -0.1837 -0.3362 -0.9237
vn -0.1951 -0.0000 -0.9808
vn -0.1506 -0.6355 -0.7573
vn 0.1506 -0.6355 -0.7573
vn 0.1837 -0.3362 -0.9237
vn 0.1951 -0.0000 -0.9808
vn 0.5232 -0.3362 -0.7831
vn 0.5556 -0.0000 -0.8315
vn 0.4290 -0.6355 -0.6420
vn 0.7860 0.1033 -0.6096
vn 0.8176 0.0621 -0.5724
vn 0.8315 -0.0000 -0.5556
vn -0.0000 -1.0000 -0.0000
vn -0.3561 0.7661 -0.5350
vn -0.1268 0.7599 -0.6376
vn 0.1268 0.7599 -0.6376
vn -0.7860 0.1033 -0.6096
vn -0.8176 0.0621 -0.5724
vn -0.8315 -0.0000 -0.5556
vn 0.3561 0.7661 -0.5350
vt 0.375000 0.666667
vt 0.375000 0.777778
vt 0.312500 0.777778
vt 0.312500 0.666667
vt 0.375000 0.555556
vt 0.312500 0.555556
vt 0.375000 0.444444
vt 0.312500 0.444444
vt 0.250000 0.666667
vt 0.250000 0.555556
vt 0.250000 0.444444
vt 0.250000 0.777778
vt 0.187500 0.777778
vt 0.187500 0.666667
vt 0.187500 0.555556
vt 0.187500 0.444444
vt 0.125000 0.666667
vt 0.125000 0.555556
vt 0.125000 0.444444
vt 0.125000 0.777778
s 0
f 184/107/190 183/108/190 187/109/190 188/110/190
f 185/111/191 184/107/191 188/110/191 189/112/191
f 186/113/192 185/111/192 189/112/192 190/114/192
f 189/112/193 188/110/193 192/115/193 193/116/193
f 190/114/194 189/112/194 193/116/194 194/117/194
f 188/110/195 187/109/195 191/118/195 192/115/195
f 192/115/196 191/118/196 195/119/196 196/120/196
f 193/116/197 192/115/197 196/120/197 197/121/197
f 194/117/198 193/116/198 197/121/198 198/122/198
f 197/121/199 196/120/199 200/123/199 201/124/199
f 198/122/200 197/121/200 201/124/200 202/125/200
f 196/120/201 195/119/201 199/126/201 200/123/201
f 204/107/202 208/110/202 207/109/202 203/108/202
f 205/111/203 209/112/203 208/110/203 204/107/203
f 206/113/204 210/114/204 209/112/204 205/111/204
f 209/112/205 213/116/205 212/115/205 208/110/205
f 210/114/206 214/117/206 213/116/206 209/112/206
f 208/110/207 212/115/207 211/118/207 207/109/207
f 212/115/208 216/120/208 215/119/208 211/118/208
f 213/116/209 217/121/209 216/120/209 212/115/209
f 214/117/210 218/122/210 217/121/210 213/116/210
f 217/121/211 221/124/211 220/123/211 216/120/211
f 218/122/212 222/125/212 221/124/212 217/121/212
f 216/120/213 220/123/213 219/126/213 215/119/213
f 183/108/214 184/107/214 204/107/214 203/108/214
f 184/107/215 185/111/215 205/111/215 204/107/215
f 185/111/216 186/113/216 206/113/216 205/111/216
f 186/113/217 190/114/217 210/114/217 206/113/217
f 187/109/218 183/108/218 203/108/218 207/109/218
f 190/114/217 194/117/217 214/117/217 210/114/217
f 191/118/219 187/109/219 207/109/219 211/118/219
f 195/119/220 191/118/220 211/118/220 215/119/220
f 194/117/217 198/122/217 218/122/217 214/117/217
f 200/123/221 199/126/221 219/126/221 220/123/221
f 201/124/222 200/123/222 220/123/222 221/124/222
f 202/125/223 201/124/223 221/124/223 222/125/223
f 198/122/217 202/125/217 222/125/217 218/122/217
f 199/126/224 195/119/224 215/119/224 219/126/224
